<svg width="92" height="92" fill="none" xmlns="http://www.w3.org/2000/svg"><path d="M27.182 0C12.195 0 0 12.195 0 27.182v37.636C0 79.805 12.195 92 27.182 92h37.636C79.805 92 92 79.805 92 64.818V27.182C92 12.195 79.805 0 64.818 0H27.182Zm0 4.182h37.636c12.727 0 23 10.274 23 23v37.636c0 12.727-10.273 23-23 23H27.182c-12.726 0-23-10.273-23-23V27.182c0-12.726 10.274-23 23-23ZM71.09 16.727a4.182 4.182 0 1 0 0 8.364 4.182 4.182 0 0 0 0-8.364ZM46 23c-12.678 0-23 10.322-23 23s10.322 23 23 23 23-10.322 23-23-10.322-23-23-23Zm0 4.182c10.418 0 18.818 8.4 18.818 18.818 0 10.418-8.4 18.818-18.818 18.818A18.787 18.787 0 0 1 27.182 46c0-10.418 8.4-18.818 18.818-18.818Z" fill="#E43151"/></svg>