<svg width="92" height="92" fill="none" xmlns="http://www.w3.org/2000/svg"><path d="M81.048 0H10.952C4.907 0 0 4.907 0 10.952v70.096C0 87.093 4.907 92 10.952 92h70.096C87.093 92 92 87.093 92 81.048V10.952C92 4.907 87.093 0 81.048 0ZM28.476 35.048v41.619H15.333v-41.62h13.143ZM15.333 22.934c0-3.066 2.629-5.41 6.572-5.41s6.418 2.344 6.571 5.41c0 3.067-2.453 5.542-6.571 5.542-3.943 0-6.572-2.475-6.572-5.542Zm61.334 53.733H63.524V54.762c0-4.381-2.19-8.762-7.667-8.85h-.175c-5.301 0-7.492 4.513-7.492 8.85v21.905H35.049v-41.62H48.19v5.608s4.228-5.607 12.727-5.607c8.696 0 15.75 5.98 15.75 18.093v23.526Z" fill="#356BD3"/></svg>