<svg xmlns="http://www.w3.org/2000/svg" width="1440" height="560" preserveAspectRatio="none"><g mask="url(&quot;#a&quot;)" fill="none"><g transform="translate(-28.8 5.6)" stroke-linecap="round" stroke="url(&quot;#b&quot;)" stroke-width="18"><path d="M264 155.71v248.58M288 117.9v36M288 180.9v90M288 297.9v144.21M312 205.19v54M312 286.19v68.62M336 143.46v273.08M360 262.47v35.07M384 245.44v69.12M408 222.52v18M408 267.52v18M408 312.52v24.96M432 252.28v55.45M456 132.36v162M456 321.36v106.28M480 134.75v198M480 359.75v18M480 404.75v20.5M504 125.76v18M504 170.76v144M504 341.76v92.48M528 242.9v18M528 287.9v29.21M552 129.88v162M552 318.88v54M552 399.88v30.24M576 140.51v278.98M600 266.22v27.56M624 268.07v23.86M648 185.64v36M648 248.64v36M648 311.64v62.72M672 208.56v36M672 271.56v18M672 316.56v34.88M696 108.06v252M696 387.06v64.88M720 169.88v126M720 322.88v67.24M744 251.09v57.83M768 170.64v90M768 287.64v101.72M792 119.74v162M792 308.74v18M792 353.74v86.52M816 113.36v144M816 284.36v72M816 383.36v63.28M840 118.75v198M840 343.75v18M840 388.75v52.5M864 256.16v47.69M888 141.99v276.02M912 132.25v198M912 357.25v18M912 402.25v25.5M936 265.22v29.56M960 243.46v18M960 288.46v28.08M984 107.7v18M984 152.7v299.6M1008 208.29v18M1008 253.29v98.42M1032 169.62v162M1032 358.62v31.76M1056 223.92v36M1056 286.92v49.16M1080 130.81v90M1080 247.81v181.38M1104 157.46v54M1104 238.46v164.08M1128 227.69v36M1128 290.69v41.62M1152 201.9v18M1152 246.9v111.2M1176 164.87v72M1176 263.87v36M1176 326.87v68.26"/></g></g><defs><linearGradient x1="252" y1="280" x2="1188" y2="280" gradientUnits="userSpaceOnUse" id="b"><stop stop-color="rgba(63, 255, 203, 1)" offset="0"/><stop stop-color="rgba(17, 221, 102, 1)" offset="1"/></linearGradient><mask id="a"><path fill="#fff" d="M0 0h1440v560H0z"/></mask></defs></svg>